<?xml version="1.0" encoding="UTF-8"?>
<svg id="Capa_1" xmlns="http://www.w3.org/2000/svg" version="1.1" viewBox="0 0 1343.6 1328.39">
  <!-- Generator: Adobe Illustrator 30.6.0, SVG Export Plug-In . SVG Version: 2.1.4 Build 109)  -->
  <defs>
    <style>
      .st0 {
        fill: #fc1a4a;
      }

      .st1 {
        fill: #fcc005;
      }

      .st2 {
        fill: #2c2a27;
      }

      .st3 {
        fill: #0e0f11;
      }

      .st4 {
        display: none;
        fill: none;
        stroke: #91877b;
        stroke-miterlimit: 10;
        stroke-width: 7.24px;
      }

      .st5 {
        stroke-width: 6.52px;
      }

      .st5, .st6 {
        fill-opacity: 0;
        stroke: #2c2a27;
        stroke-linecap: round;
        stroke-linejoin: round;
      }

      .st6 {
        stroke-width: 6.71px;
      }
    </style>
  </defs>
  <g>
    <g>
      <path class="st1" d="M539.62,55.16c-120.4,92.79-201.62,178.63-256.33,244.82-39.71,48.04-64.74,112.37-157.97,135.32-38.96,9.59-82.09-3.97-106.16-6.78-48.19,68.39,10.3,157.01,5.65,246.21,627.97-91.75,296.93-342.11,674.76-438.02,34.91-8.86,74.92-13.87,107,8.74-4.06-4.12-12.22-16.32-6.92-16.37,5.28-.04,8.73-6.74,7.91-12.48-1.07-7.5,5.94-108.42-57.73-164.45-53.96-47.48-140.51-48.17-210.21,3h0Z"/>
      <path class="st2" d="M833.07,191.19c31.53,78.68,17.43,125.78-24.84,187.1-39.02,56.58-90.67,100.88-136.57,150.82-85.27,92.96-150.99,206.86-191.75,332.48-10.55,32.57,3.85,88.99,34.72,104.78-73.83,9.5-174.47-35.35-204.08-120.43-14.51-41.81.94-85.29,17.85-122.75,55.4-122.56,128.81-234.23,216.97-329.98,84.58-91.87,202.53-196.97,204.46-341.03,23.74,23.87,51.47,58.46,71.21,105.29,4.91,11.65,8.86,22.95,12.04,33.73h0Z"/>
      <path class="st6" d="M40.45,428.23c-10.62,17.72-13.05,32.26-13.39,42.07-.52,15.27,3.89,24.1,4.52,47.44.32,11.67-.47,21.16-1.13,27.11"/>
      <path class="st5" d="M98.79,439.88c-.26,19.78-.54,39.55-.8,59.32"/>
      <path class="st5" d="M174.75,409.14c.76,18.85,1.51,37.7,2.27,56.55"/>
      <path class="st5" d="M263.67,302.52c7.11,43.35,15.68,86.57,25.74,129.54"/>
      <path class="st5" d="M341.87,233.63c-2.24,20.6-.04,42.19,6.38,62.63"/>
      <path class="st5" d="M388.17,182.91c8.47,15.88,12.86,33.96,12.51,51.48"/>
      <path class="st5" d="M459.36,119.29c-.88,45.32,3.69,91.32,13.56,136.49"/>
      <path class="st5" d="M539.63,55.15c.52,23.53,1.03,47.06,1.56,70.58"/>
      <path class="st5" d="M615.62,17.65c5.5,31.17,5.78,62.9.86,93.13"/>
    </g>
    <g>
      <path class="st0" d="M583.33,365.77c-131.95-23.32-327.96,98.14-329.43,245.4-1.47,147.27,180.17,383.46,282.99,507.02,95.57,114.85,278.79-44.31,278.79-44.31,0,0,296.98,30.35,301.97-165.52s20.24-472.22-112.72-542.76c-132.95-70.54-421.59.16-421.59.16h-.01Z"/>
      <path class="st2" d="M606.91,424.67l-7.79-329.22,73.81,1.1s-45.39,89.04-37.58,125.02c5.28,24.29,9.2,119.69,11.21,179.17.74,22.07-21.09,35.22-39.65,23.92h0Z"/>
      <path class="st2" d="M492.79,399.84s55.85,53.82,115.09,45.05c59.24-8.78,144.77-75.24,144.77-75.24,0,0-93.18,34.73-138,36.62-44.83,1.89-121.86-6.43-121.86-6.43h0Z"/>
    </g>
    <g>
      <path class="st1" d="M317.46,861.85c78.6,149.37,189.9,171.69,266.12,120.5,76.22-51.19,234.2-239.29,383.85-298.8,149.66-59.5,236.17-86.13,286.82-44.15,0,0-10.16-148.42-120.2-170.47-269.75-54.06-634.9,513.15-816.6,392.91h0Z"/>
      <path class="st5" d="M511.71,878.14c-9.19-9.74-18.39-19.47-27.61-29.14-1.16-1.29-2.33-2.5-3.51-3.73"/>
      <path class="st5" d="M555.74,797.29c20.86,34.72,49.73,64.26,82.94,84.63"/>
      <path class="st5" d="M672.76,791.48c-16.58-14.4-30.22-32.93-39.32-53.44"/>
      <path class="st5" d="M702.22,682.5c11.04,17.46,25.35,32.72,41.7,44.28"/>
      <path class="st5" d="M775.74,625.43c15.32,37.25,40.61,70.47,71.73,94.21"/>
      <path class="st5" d="M850.29,567.39c3.58,20.23,16.96,39.08,34.39,48.45"/>
      <path class="st5" d="M934.38,532.78c6.09,18.7,16.65,36.1,30.31,49.89"/>
      <path class="st5" d="M1004.07,484.27c19.47,28.57,38.95,57.13,58.43,85.69"/>
    </g>
    <path class="st1" d="M1086.12,322.75c40.35-16.51,80.71-33.03,121.05-49.54l-87.06-28.53c-.97-.32-1.75-1.13-2.1-2.17-.34-1.04-.17-2.13.43-2.91l59.27-75.53-98.93,16.15c-.92.14-1.87-.2-2.58-.94s-1.05-1.77-.95-2.76l16.97-151.94-107.6,101.08c-.66.63-1.6.84-2.52.56-.91-.27-1.69-.99-2.07-1.93l-46.12-111.37-14.77,110.26c-.14,1.04-.76,1.87-1.66,2.22-.9.33-1.93.17-2.75-.5l-61.7-49.24c9.38,43.52,18.76,87.07,28.15,130.59,20.67-.49,71.26,1.41,125.6,36.19,42.07,26.92,67.19,61.28,79.32,80.32h.02,0Z"/>
    <path class="st3" d="M964.56.01c.17,0,.33,0,.51.05,1.26.24,2.32,1.33,2.57,2.7l23.42,123.62,131.85-71.64c1.03-.57,2.36-.34,3.3.6.94.92,1.28,2.32.87,3.52l-50.39,144.45,105.93,9.41c1.23.11,2.31,1.04,2.73,2.32s.04,2.62-.91,3.35l-77.81,59.54,84.01,50.8c1.11.68,1.76,2,1.63,3.3-.14,1.3-1.04,2.28-2.24,2.45l-104.25,14.07-1.2-6.15,95.97-12.95-80.52-48.69c-.89-.55-1.51-1.51-1.63-2.59-.11-1.07.28-2.08,1.06-2.67l74.93-57.34-101.8-9.04c-.94-.08-1.82-.66-2.37-1.53s-.67-1.94-.36-2.87l49.06-140.63-128.41,69.75c-.79.44-1.77.41-2.63-.08-.85-.48-1.46-1.36-1.65-2.36l-22.28-117.54-38.05,101.43c-.36.95-1.15,1.59-2.12,1.7-.97.09-1.95-.32-2.63-1.16l-50.92-62.17,10.13,80.21-5.68.28-11.33-89.76c-.17-1.34.47-2.58,1.59-3.05s2.46-.09,3.33.97l53.93,65.85L962.13,1.71c.4-1.07,1.34-1.71,2.4-1.71h.03,0Z"/>
    <path class="st2" d="M1267.94,870.9s-143.92-7.72-134.57,28.98l64.63,145.52,99.35-73.33,14.49-58.19-43.89-42.99h-.01,0Z"/>
    <path class="st2" d="M1137.94,622.23c-47.94,67.4-112.28,127.58-172.62,176.95-59.4,48.59-126.07,91.19-165.71,159.62-40.06,69.18-38.37,204.13,7.85,278.86,30.4,49.17,81.89,83.5,134.39,89.63,51.8,6.05,100.69-13.81,146.5-35.2,83.13-38.81,105.08-70.5,150.96-157.69,39.96-75.94,85.97-36.85-20.82-60.21-23.01-5.03-134.94,79.38-237.27,151.13-7.78,5.45-92.33-109.98-28.67-186.49,88.38-106.23,261.79-264.13,269.03-276.06,17.55-28.96,41.61-67.64,41.19-105.25-.65-57.97-40.08-151.68-93.55-175.78,19.6,32.4,11.47,71.38-4.88,99.59-8.05,13.9-16.91,27.54-26.4,40.9h.02-.02Z"/>
    <path class="st1" d="M1320.29,1108.15c-45.89,87.22-148.79,145.12-231.91,183.92-45.82,21.4-94.7,41.26-146.5,35.22-52.49-6.13-103.99-40.45-134.41-89.66-28.02-45.35-39.68-112.87-35.59-174.41,1.03,60.73,18.51,108.77,103.11,131.25,71.45,18.94,140.09-19.97,194.66-58.61,53.68-38.01,262.25-196.84,198.33-264.97,88.52,35.14,89.83,166.02,52.34,237.25h-.03Z"/>
    <g>
      <path class="st0" d="M934.81,1070.14c83.23-12.36,180.01-50.67,182.84-161.77.37-14.36.79-29.15,1.2-44.26-55.59,54.49-121.75,121.17-166.3,174.72-8.24,9.9-13.97,20.45-17.74,31.31h0Z"/>
      <path class="st0" d="M940.22,773.12c-59.4,48.59-144.8,128.98-184.43,197.42-21.36,36.88-33.9,96.72,15.77,135.9,26.78-17.51,44.11-32.56,44.11-32.56,0,0,55.62,5.68,119.13-3.75,3.76-10.86,9.5-21.41,17.74-31.31,44.55-53.55,110.71-120.23,166.3-174.72,1.88-68.79,3.61-144.19-.69-215.59-74.53,24.47-125.55,81.76-177.93,124.61h0Z"/>
    </g>
  </g>
  <rect class="st4" x="-63.44" y="-222.46" width="1592.79" height="1592.79" rx="132.09" ry="132.09"/>
</svg>